<mxfile host="app.diagrams.net" modified="2023-02-26T02:07:04.511Z" agent="5.0 (Windows NT 10.0; Win64; x64) AppleWebKit/537.36 (KHTML, like Gecko) Chrome/110.0.0.0 Safari/537.36" etag="c2zN-6NbhuwvWbXsi07I" version="20.8.23" type="github">
  <diagram name="第 1 页" id="rXisC_CHZAI3jeXeccyk">
    <mxGraphModel dx="794" dy="438" grid="1" gridSize="10" guides="1" tooltips="1" connect="1" arrows="1" fold="1" page="1" pageScale="1" pageWidth="827" pageHeight="1169" math="0" shadow="0">
      <root>
        <mxCell id="0" />
        <mxCell id="1" parent="0" />
        <mxCell id="30KcK-SqaPuxvT4S5OJS-1" value="" style="rounded=0;whiteSpace=wrap;html=1;fillColor=#f5f5f5;fontColor=#333333;strokeColor=default;shadow=0;glass=0;gradientColor=none;fillStyle=auto;comic=1;" parent="1" vertex="1">
          <mxGeometry x="260" y="60" width="120" height="60" as="geometry" />
        </mxCell>
        <mxCell id="lDQlMrDaKK3nFQEqieKP-5" style="edgeStyle=orthogonalEdgeStyle;rounded=0;orthogonalLoop=1;jettySize=auto;html=1;entryX=0.775;entryY=-0.033;entryDx=0;entryDy=0;entryPerimeter=0;" edge="1" parent="1" source="30KcK-SqaPuxvT4S5OJS-2" target="lDQlMrDaKK3nFQEqieKP-2">
          <mxGeometry relative="1" as="geometry" />
        </mxCell>
        <mxCell id="30KcK-SqaPuxvT4S5OJS-2" value="" style="ellipse;whiteSpace=wrap;html=1;fillColor=#dae8fc;strokeColor=#6c8ebf;" parent="1" vertex="1">
          <mxGeometry x="260" y="150" width="120" height="80" as="geometry" />
        </mxCell>
        <mxCell id="30KcK-SqaPuxvT4S5OJS-3" value="" style="shape=process;whiteSpace=wrap;html=1;backgroundOutline=1;fillColor=#d5e8d4;strokeColor=#82b366;" parent="1" vertex="1">
          <mxGeometry x="260" y="290" width="120" height="60" as="geometry" />
        </mxCell>
        <mxCell id="lDQlMrDaKK3nFQEqieKP-4" style="edgeStyle=orthogonalEdgeStyle;rounded=0;orthogonalLoop=1;jettySize=auto;html=1;entryX=0;entryY=0.5;entryDx=0;entryDy=0;" edge="1" parent="1" source="lDQlMrDaKK3nFQEqieKP-1" target="30KcK-SqaPuxvT4S5OJS-2">
          <mxGeometry relative="1" as="geometry" />
        </mxCell>
        <mxCell id="lDQlMrDaKK3nFQEqieKP-1" value="" style="rounded=1;whiteSpace=wrap;html=1;fillColor=#e1d5e7;strokeColor=#9673a6;" vertex="1" parent="1">
          <mxGeometry x="80" y="100" width="120" height="60" as="geometry" />
        </mxCell>
        <mxCell id="lDQlMrDaKK3nFQEqieKP-2" value="" style="ellipse;whiteSpace=wrap;html=1;aspect=fixed;fillColor=#ffe6cc;strokeColor=#d79b00;" vertex="1" parent="1">
          <mxGeometry x="120" y="260" width="80" height="80" as="geometry" />
        </mxCell>
        <mxCell id="lDQlMrDaKK3nFQEqieKP-3" value="测试" style="rounded=1;whiteSpace=wrap;html=1;strokeWidth=2;fillWeight=4;hachureGap=8;hachureAngle=45;fillColor=#d5e8d4;sketch=1;strokeColor=#82b366;shadow=0;treeFolding=0;treeMoving=0;container=0;" vertex="1" parent="1">
          <mxGeometry x="450" y="240" width="120" height="60" as="geometry" />
        </mxCell>
      </root>
    </mxGraphModel>
  </diagram>
</mxfile>
